<svg aria-hidden="true" style="position: absolute; width: 0; height: 0; overflow: hidden;" version="1.1" xmlns="http://www.w3.org/2000/svg" xmlns:xlink="http://www.w3.org/1999/xlink">
<defs>
<symbol id="icon-1" viewBox="0 0 32 32">
<path d="M0 1.185c0-0.655 0.531-1.185 1.185-1.185h29.63c0.655 0 1.185 0.531 1.185 1.185s-0.531 1.185-1.185 1.185h-29.63c-0.655 0-1.185-0.531-1.185-1.185zM0 7.111c0-0.655 0.531-1.185 1.185-1.185h29.63c0.655 0 1.185 0.531 1.185 1.185s-0.531 1.185-1.185 1.185h-29.63c-0.655 0-1.185-0.531-1.185-1.185zM1.185 11.852c-0.655 0-1.185 0.531-1.185 1.185s0.531 1.185 1.185 1.185h29.63c0.655 0 1.185-0.531 1.185-1.185s-0.531-1.185-1.185-1.185h-29.63z"></path>
<path d="M0 18.963c0-0.655 0.531-1.185 1.185-1.185h29.63c0.655 0 1.185 0.531 1.185 1.185s-0.531 1.185-1.185 1.185h-29.63c-0.655 0-1.185-0.531-1.185-1.185zM0 24.889c0-0.655 0.531-1.185 1.185-1.185h29.63c0.655 0 1.185 0.531 1.185 1.185s-0.531 1.185-1.185 1.185h-29.63c-0.655 0-1.185-0.531-1.185-1.185zM1.185 29.63c-0.655 0-1.185 0.531-1.185 1.185s0.531 1.185 1.185 1.185h29.63c0.655 0 1.185-0.531 1.185-1.185s-0.531-1.185-1.185-1.185h-29.63z"></path>
</symbol>
<symbol id="icon-2" viewBox="0 0 32 32">
<path d="M1.185 0h13.037c0.655 0 1.185 0.531 1.185 1.185s-0.531 1.185-1.185 1.185h-13.037c-0.655 0-1.185-0.531-1.185-1.185s0.531-1.185 1.185-1.185z"></path>
<path d="M17.778 0h13.037c0.655 0 1.185 0.531 1.185 1.185s-0.531 1.185-1.185 1.185h-13.037c-0.655 0-1.185-0.531-1.185-1.185s0.531-1.185 1.185-1.185z"></path>
<path d="M1.185 17.778h13.037c0.655 0 1.185 0.531 1.185 1.185s-0.531 1.185-1.185 1.185h-13.037c-0.655 0-1.185-0.531-1.185-1.185s0.531-1.185 1.185-1.185z"></path>
<path d="M17.778 17.778h13.037c0.655 0 1.185 0.531 1.185 1.185s-0.531 1.185-1.185 1.185h-13.037c-0.655 0-1.185-0.531-1.185-1.185s0.531-1.185 1.185-1.185z"></path>
<path d="M1.185 11.852h13.037c0.655 0 1.185 0.531 1.185 1.185s-0.531 1.185-1.185 1.185h-13.037c-0.655 0-1.185-0.531-1.185-1.185s0.531-1.185 1.185-1.185z"></path>
<path d="M17.778 11.852h13.037c0.655 0 1.185 0.531 1.185 1.185s-0.531 1.185-1.185 1.185h-13.037c-0.655 0-1.185-0.531-1.185-1.185s0.531-1.185 1.185-1.185z"></path>
<path d="M1.185 29.63h13.037c0.655 0 1.185 0.531 1.185 1.185s-0.531 1.185-1.185 1.185h-13.037c-0.655 0-1.185-0.531-1.185-1.185s0.531-1.185 1.185-1.185z"></path>
<path d="M17.778 29.63h13.037c0.655 0 1.185 0.531 1.185 1.185s-0.531 1.185-1.185 1.185h-13.037c-0.655 0-1.185-0.531-1.185-1.185s0.531-1.185 1.185-1.185z"></path>
<path d="M1.185 5.926h13.037c0.655 0 1.185 0.531 1.185 1.185s-0.531 1.185-1.185 1.185h-13.037c-0.655 0-1.185-0.531-1.185-1.185s0.531-1.185 1.185-1.185z"></path>
<path d="M17.778 5.926h13.037c0.655 0 1.185 0.531 1.185 1.185s-0.531 1.185-1.185 1.185h-13.037c-0.655 0-1.185-0.531-1.185-1.185s0.531-1.185 1.185-1.185z"></path>
<path d="M1.185 23.704h13.037c0.655 0 1.185 0.531 1.185 1.185s-0.531 1.185-1.185 1.185h-13.037c-0.655 0-1.185-0.531-1.185-1.185s0.531-1.185 1.185-1.185z"></path>
<path d="M17.778 23.704h13.037c0.655 0 1.185 0.531 1.185 1.185s-0.531 1.185-1.185 1.185h-13.037c-0.655 0-1.185-0.531-1.185-1.185s0.531-1.185 1.185-1.185z"></path>
</symbol>
<symbol id="icon-3" viewBox="0 0 32 32">
<path d="M1.185 29.63h29.63c0.655 0 1.185 0.531 1.185 1.185s-0.531 1.185-1.185 1.185h-29.63c-0.655 0-1.185-0.531-1.185-1.185s0.531-1.185 1.185-1.185z"></path>
<path d="M1.185 5.926h29.63c0.655 0 1.185 0.531 1.185 1.185s-0.531 1.185-1.185 1.185h-29.63c-0.655 0-1.185-0.531-1.185-1.185s0.531-1.185 1.185-1.185z"></path>
<path d="M1.185 11.852h13.037c0.655 0 1.185 0.531 1.185 1.185s-0.531 1.185-1.185 1.185h-13.037c-0.655 0-1.185-0.531-1.185-1.185s0.531-1.185 1.185-1.185z"></path>
<path d="M17.778 11.852h13.037c0.655 0 1.185 0.531 1.185 1.185s-0.531 1.185-1.185 1.185h-13.037c-0.655 0-1.185-0.531-1.185-1.185s0.531-1.185 1.185-1.185z"></path>
<path d="M1.185 0h13.037c0.655 0 1.185 0.531 1.185 1.185s-0.531 1.185-1.185 1.185h-13.037c-0.655 0-1.185-0.531-1.185-1.185s0.531-1.185 1.185-1.185z"></path>
<path d="M17.778 0h13.037c0.655 0 1.185 0.531 1.185 1.185s-0.531 1.185-1.185 1.185h-13.037c-0.655 0-1.185-0.531-1.185-1.185s0.531-1.185 1.185-1.185z"></path>
<path d="M1.185 17.778h13.037c0.655 0 1.185 0.531 1.185 1.185s-0.531 1.185-1.185 1.185h-13.037c-0.655 0-1.185-0.531-1.185-1.185s0.531-1.185 1.185-1.185z"></path>
<path d="M17.778 17.778h13.037c0.655 0 1.185 0.531 1.185 1.185s-0.531 1.185-1.185 1.185h-13.037c-0.655 0-1.185-0.531-1.185-1.185s0.531-1.185 1.185-1.185z"></path>
<path d="M1.185 23.704h13.037c0.655 0 1.185 0.531 1.185 1.185s-0.531 1.185-1.185 1.185h-13.037c-0.655 0-1.185-0.531-1.185-1.185s0.531-1.185 1.185-1.185z"></path>
<path d="M17.778 23.704h13.037c0.655 0 1.185 0.531 1.185 1.185s-0.531 1.185-1.185 1.185h-13.037c-0.655 0-1.185-0.531-1.185-1.185s0.531-1.185 1.185-1.185z"></path>
</symbol>
<symbol id="icon-4" viewBox="0 0 32 32">
<path d="M1.185 23.704h29.63c0.655 0 1.185 0.531 1.185 1.185s-0.531 1.185-1.185 1.185h-29.63c-0.655 0-1.185-0.531-1.185-1.185s0.531-1.185 1.185-1.185z"></path>
<path d="M1.185 0h29.63c0.655 0 1.185 0.531 1.185 1.185s-0.531 1.185-1.185 1.185h-29.63c-0.655 0-1.185-0.531-1.185-1.185s0.531-1.185 1.185-1.185z"></path>
<path d="M1.185 5.926h13.037c0.655 0 1.185 0.531 1.185 1.185s-0.531 1.185-1.185 1.185h-13.037c-0.655 0-1.185-0.531-1.185-1.185s0.531-1.185 1.185-1.185z"></path>
<path d="M17.778 5.926h13.037c0.655 0 1.185 0.531 1.185 1.185s-0.531 1.185-1.185 1.185h-13.037c-0.655 0-1.185-0.531-1.185-1.185s0.531-1.185 1.185-1.185z"></path>
<path d="M1.185 11.852h13.037c0.655 0 1.185 0.531 1.185 1.185s-0.531 1.185-1.185 1.185h-13.037c-0.655 0-1.185-0.531-1.185-1.185s0.531-1.185 1.185-1.185z"></path>
<path d="M17.778 11.852h13.037c0.655 0 1.185 0.531 1.185 1.185s-0.531 1.185-1.185 1.185h-13.037c-0.655 0-1.185-0.531-1.185-1.185s0.531-1.185 1.185-1.185z"></path>
<path d="M1.185 17.778h13.037c0.655 0 1.185 0.531 1.185 1.185s-0.531 1.185-1.185 1.185h-13.037c-0.655 0-1.185-0.531-1.185-1.185s0.531-1.185 1.185-1.185z"></path>
<path d="M1.185 29.63h13.037c0.655 0 1.185 0.531 1.185 1.185s-0.531 1.185-1.185 1.185h-13.037c-0.655 0-1.185-0.531-1.185-1.185s0.531-1.185 1.185-1.185z"></path>
<path d="M17.778 17.778h13.037c0.655 0 1.185 0.531 1.185 1.185s-0.531 1.185-1.185 1.185h-13.037c-0.655 0-1.185-0.531-1.185-1.185s0.531-1.185 1.185-1.185z"></path>
<path d="M17.778 29.63h13.037c0.655 0 1.185 0.531 1.185 1.185s-0.531 1.185-1.185 1.185h-13.037c-0.655 0-1.185-0.531-1.185-1.185s0.531-1.185 1.185-1.185z"></path>
</symbol>
<symbol id="icon-5" viewBox="0 0 32 32">
<path d="M0 18.963c0-0.655 0.531-1.185 1.185-1.185h29.63c0.655 0 1.185 0.531 1.185 1.185s-0.531 1.185-1.185 1.185h-29.63c-0.655 0-1.185-0.531-1.185-1.185zM0 24.889c0-0.655 0.531-1.185 1.185-1.185h29.63c0.655 0 1.185 0.531 1.185 1.185s-0.531 1.185-1.185 1.185h-29.63c-0.655 0-1.185-0.531-1.185-1.185zM1.185 29.63c-0.655 0-1.185 0.531-1.185 1.185s0.531 1.185 1.185 1.185h29.63c0.655 0 1.185-0.531 1.185-1.185s-0.531-1.185-1.185-1.185h-29.63z"></path>
<path d="M1.185 5.926h29.63c0.655 0 1.185 0.531 1.185 1.185s-0.531 1.185-1.185 1.185h-29.63c-0.655 0-1.185-0.531-1.185-1.185s0.531-1.185 1.185-1.185z"></path>
<path d="M1.185 0h13.037c0.655 0 1.185 0.531 1.185 1.185s-0.531 1.185-1.185 1.185h-13.037c-0.655 0-1.185-0.531-1.185-1.185s0.531-1.185 1.185-1.185z"></path>
<path d="M17.778 0h13.037c0.655 0 1.185 0.531 1.185 1.185s-0.531 1.185-1.185 1.185h-13.037c-0.655 0-1.185-0.531-1.185-1.185s0.531-1.185 1.185-1.185z"></path>
<path d="M1.185 11.852h13.037c0.655 0 1.185 0.531 1.185 1.185s-0.531 1.185-1.185 1.185h-13.037c-0.655 0-1.185-0.531-1.185-1.185s0.531-1.185 1.185-1.185z"></path>
<path d="M17.778 11.852h13.037c0.655 0 1.185 0.531 1.185 1.185s-0.531 1.185-1.185 1.185h-13.037c-0.655 0-1.185-0.531-1.185-1.185s0.531-1.185 1.185-1.185z"></path>
</symbol>
<symbol id="icon-6" viewBox="0 0 32 32">
<path d="M0 1.185c0-0.655 0.531-1.185 1.185-1.185h29.63c0.655 0 1.185 0.531 1.185 1.185s-0.531 1.185-1.185 1.185h-29.63c-0.655 0-1.185-0.531-1.185-1.185zM0 7.111c0-0.655 0.531-1.185 1.185-1.185h29.63c0.655 0 1.185 0.531 1.185 1.185s-0.531 1.185-1.185 1.185h-29.63c-0.655 0-1.185-0.531-1.185-1.185zM1.185 11.852c-0.655 0-1.185 0.531-1.185 1.185s0.531 1.185 1.185 1.185h29.63c0.655 0 1.185-0.531 1.185-1.185s-0.531-1.185-1.185-1.185h-29.63z"></path>
<path d="M1.185 23.704h29.63c0.655 0 1.185 0.531 1.185 1.185s-0.531 1.185-1.185 1.185h-29.63c-0.655 0-1.185-0.531-1.185-1.185s0.531-1.185 1.185-1.185z"></path>
<path d="M1.185 17.778h13.037c0.655 0 1.185 0.531 1.185 1.185s-0.531 1.185-1.185 1.185h-13.037c-0.655 0-1.185-0.531-1.185-1.185s0.531-1.185 1.185-1.185z"></path>
<path d="M17.778 17.778h13.037c0.655 0 1.185 0.531 1.185 1.185s-0.531 1.185-1.185 1.185h-13.037c-0.655 0-1.185-0.531-1.185-1.185s0.531-1.185 1.185-1.185z"></path>
<path d="M1.185 29.63h13.037c0.655 0 1.185 0.531 1.185 1.185s-0.531 1.185-1.185 1.185h-13.037c-0.655 0-1.185-0.531-1.185-1.185s0.531-1.185 1.185-1.185z"></path>
<path d="M17.778 29.63h13.037c0.655 0 1.185 0.531 1.185 1.185s-0.531 1.185-1.185 1.185h-13.037c-0.655 0-1.185-0.531-1.185-1.185s0.531-1.185 1.185-1.185z"></path>
</symbol>
<symbol id="icon-7" viewBox="0 0 32 32">
<path d="M1.185 0h13.037c0.655 0 1.185 0.531 1.185 1.185s-0.531 1.185-1.185 1.185h-13.037c-0.655 0-1.185-0.531-1.185-1.185s0.531-1.185 1.185-1.185z"></path>
<path d="M17.778 0h13.037c0.655 0 1.185 0.531 1.185 1.185s-0.531 1.185-1.185 1.185h-13.037c-0.655 0-1.185-0.531-1.185-1.185s0.531-1.185 1.185-1.185z"></path>
<path d="M1.185 11.852h13.037c0.655 0 1.185 0.531 1.185 1.185s-0.531 1.185-1.185 1.185h-13.037c-0.655 0-1.185-0.531-1.185-1.185s0.531-1.185 1.185-1.185z"></path>
<path d="M17.778 11.852h13.037c0.655 0 1.185 0.531 1.185 1.185s-0.531 1.185-1.185 1.185h-13.037c-0.655 0-1.185-0.531-1.185-1.185s0.531-1.185 1.185-1.185z"></path>
<path d="M1.185 5.926h13.037c0.655 0 1.185 0.531 1.185 1.185s-0.531 1.185-1.185 1.185h-13.037c-0.655 0-1.185-0.531-1.185-1.185s0.531-1.185 1.185-1.185z"></path>
<path d="M17.778 5.926h13.037c0.655 0 1.185 0.531 1.185 1.185s-0.531 1.185-1.185 1.185h-13.037c-0.655 0-1.185-0.531-1.185-1.185s0.531-1.185 1.185-1.185z"></path>
<path d="M1.185 23.704h29.63c0.655 0 1.185 0.531 1.185 1.185s-0.531 1.185-1.185 1.185h-29.63c-0.655 0-1.185-0.531-1.185-1.185s0.531-1.185 1.185-1.185z"></path>
<path d="M1.185 17.778h13.037c0.655 0 1.185 0.531 1.185 1.185s-0.531 1.185-1.185 1.185h-13.037c-0.655 0-1.185-0.531-1.185-1.185s0.531-1.185 1.185-1.185z"></path>
<path d="M17.778 17.778h13.037c0.655 0 1.185 0.531 1.185 1.185s-0.531 1.185-1.185 1.185h-13.037c-0.655 0-1.185-0.531-1.185-1.185s0.531-1.185 1.185-1.185z"></path>
<path d="M1.185 29.63h13.037c0.655 0 1.185 0.531 1.185 1.185s-0.531 1.185-1.185 1.185h-13.037c-0.655 0-1.185-0.531-1.185-1.185s0.531-1.185 1.185-1.185z"></path>
<path d="M17.778 29.63h13.037c0.655 0 1.185 0.531 1.185 1.185s-0.531 1.185-1.185 1.185h-13.037c-0.655 0-1.185-0.531-1.185-1.185s0.531-1.185 1.185-1.185z"></path>
</symbol>
<symbol id="icon-8" viewBox="0 0 32 32">
<path d="M1.185 17.778h13.037c0.655 0 1.185 0.531 1.185 1.185s-0.531 1.185-1.185 1.185h-13.037c-0.655 0-1.185-0.531-1.185-1.185s0.531-1.185 1.185-1.185z"></path>
<path d="M17.778 17.778h13.037c0.655 0 1.185 0.531 1.185 1.185s-0.531 1.185-1.185 1.185h-13.037c-0.655 0-1.185-0.531-1.185-1.185s0.531-1.185 1.185-1.185z"></path>
<path d="M1.185 29.63h13.037c0.655 0 1.185 0.531 1.185 1.185s-0.531 1.185-1.185 1.185h-13.037c-0.655 0-1.185-0.531-1.185-1.185s0.531-1.185 1.185-1.185z"></path>
<path d="M17.778 29.63h13.037c0.655 0 1.185 0.531 1.185 1.185s-0.531 1.185-1.185 1.185h-13.037c-0.655 0-1.185-0.531-1.185-1.185s0.531-1.185 1.185-1.185z"></path>
<path d="M1.185 23.704h13.037c0.655 0 1.185 0.531 1.185 1.185s-0.531 1.185-1.185 1.185h-13.037c-0.655 0-1.185-0.531-1.185-1.185s0.531-1.185 1.185-1.185z"></path>
<path d="M17.778 23.704h13.037c0.655 0 1.185 0.531 1.185 1.185s-0.531 1.185-1.185 1.185h-13.037c-0.655 0-1.185-0.531-1.185-1.185s0.531-1.185 1.185-1.185z"></path>
<path d="M1.185 5.926h29.63c0.655 0 1.185 0.531 1.185 1.185s-0.531 1.185-1.185 1.185h-29.63c-0.655 0-1.185-0.531-1.185-1.185s0.531-1.185 1.185-1.185z"></path>
<path d="M1.185 0h13.037c0.655 0 1.185 0.531 1.185 1.185s-0.531 1.185-1.185 1.185h-13.037c-0.655 0-1.185-0.531-1.185-1.185s0.531-1.185 1.185-1.185z"></path>
<path d="M17.778 0h13.037c0.655 0 1.185 0.531 1.185 1.185s-0.531 1.185-1.185 1.185h-13.037c-0.655 0-1.185-0.531-1.185-1.185s0.531-1.185 1.185-1.185z"></path>
<path d="M1.185 11.852h13.037c0.655 0 1.185 0.531 1.185 1.185s-0.531 1.185-1.185 1.185h-13.037c-0.655 0-1.185-0.531-1.185-1.185s0.531-1.185 1.185-1.185z"></path>
<path d="M17.778 11.852h13.037c0.655 0 1.185 0.531 1.185 1.185s-0.531 1.185-1.185 1.185h-13.037c-0.655 0-1.185-0.531-1.185-1.185s0.531-1.185 1.185-1.185z"></path>
</symbol>
</defs>
</svg>
